<?xml version='1.0' encoding='UTF-8' standalone='no'?>
<!-- Created with Fritzing (http://www.fritzing.org/) -->
<svg xmlns:svg='http://www.w3.org/2000/svg' xmlns='http://www.w3.org/2000/svg' version='1.2' baseProfile='tiny' x='0in' y='0in' width='3.43906in' height='4.99604in' viewBox='0 0 247.612 359.715' >
<g partID='57990'><g transform='translate(1.24829,41.6017)' ><g id="schematic">
<rect width="56.7" x="14.85" y="14.85" class="interior rect" fill="#FFFFFF" height="42.3" stroke="#000000" stroke-linecap="round" stroke-width="0.9"/>
<line class="pin" fill="none" stroke="#787878" stroke-linecap="round" id="connector11pin" y1="28.8" x1="71.6499" y2="28.8" stroke-width="0.699999" x2="86.0499"/>
<text x="70.2499" y="29.4999" class="text" font-family="'Droid Sans'" fill="#8c8c8c" text-anchor="end" stroke="none" stroke-width="0" font-size="3.49999">XOUT</text>
<g width="0.699999" x="86.0499" y="28.4499" class="terminal" fill="none" height="0.699999" stroke="none" id="connector11terminal" stroke-width="0"/>
<line class="pin" fill="none" stroke="#787878" stroke-linecap="round" id="connector10pin" y1="36" x1="71.6499" y2="36" stroke-width="0.699999" x2="86.0499"/>
<text x="70.2499" y="36.6999" class="text" font-family="'Droid Sans'" fill="#8c8c8c" text-anchor="end" stroke="none" stroke-width="0" font-size="3.49999">YOUT</text>
<g width="0.699999" x="86.0499" y="35.6499" class="terminal" fill="none" height="0.699999" stroke="none" id="connector10terminal" stroke-width="0"/>
<line class="pin" fill="none" stroke="#787878" stroke-linecap="round" id="connector9pin" y1="43.2" x1="71.6499" y2="43.2" stroke-width="0.699999" x2="86.0499"/>
<text x="70.2499" y="43.8999" class="text" font-family="'Droid Sans'" fill="#8c8c8c" text-anchor="end" stroke="none" stroke-width="0" font-size="3.49999">ZOUT</text>
<g width="0.699999" x="86.0499" y="42.8499" class="terminal" fill="none" height="0.699999" stroke="none" id="connector9terminal" stroke-width="0"/>
<line class="pin" fill="none" stroke="#787878" stroke-linecap="round" id="connector8pin" y1="28.8" x1="0.349999" y2="28.8" stroke-width="0.699999" x2="14.75"/>
<text x="16.15" y="29.4999" class="text" font-family="'Droid Sans'" fill="#8c8c8c" text-anchor="start" stroke="none" stroke-width="0" font-size="3.49999">ST</text>
<g width="0.699999" x="-0.349999" y="28.4499" class="terminal" fill="none" height="0.699999" stroke="none" id="connector8terminal" stroke-width="0"/>
<line class="pin" fill="none" stroke="#787878" stroke-linecap="round" id="connector12pin" y1="57.2499" x1="43.2" y2="71.6499" stroke-width="0.699999" x2="43.2"/>
<g transform="matrix(1, 0, 0, 1, 43.8999, 55.8499)">
<g>
<g transform="rotate(270)">
<g>
<text x="0" y="0" class="text" font-family="'Droid Sans'" fill="#8c8c8c" text-anchor="start" stroke="none" stroke-width="0" font-size="3.49999">GND</text>
</g>
</g>
</g>
</g>
<g width="0.699999" x="42.8499" y="71.6499" class="terminal" fill="none" height="0.699999" stroke="none" id="connector12terminal" stroke-width="0"/>
<line class="pin" fill="none" stroke="#787878" stroke-linecap="round" id="connector13pin" y1="0.349999" x1="43.2" y2="14.75" stroke-width="0.699999" x2="43.2"/>
<g transform="matrix(1, 0, 0, 1, 43.8999, 16.15)">
<g>
<g transform="rotate(270)">
<g>
<text x="0" y="0" class="text" font-family="'Droid Sans'" fill="#8c8c8c" text-anchor="end" stroke="none" stroke-width="0" font-size="3.49999">VCC</text>
</g>
</g>
</g>
</g>
<g width="0.699999" x="42.8499" y="-0.349999" class="terminal" fill="none" height="0.699999" stroke="none" id="connector13terminal" stroke-width="0"/>
<text x="43.6499" y="27.9835" class="text" font-family="'Droid Sans'" fill="#000000" text-anchor="middle" stroke="none" id="label" stroke-width="0" font-size="4.25001">Triple Axis</text>
<text x="43.6499" y="32.5168" class="text" font-family="'Droid Sans'" fill="#000000" text-anchor="middle" stroke="none" id="label" stroke-width="0" font-size="4.25001">Accelerometer</text>
<text x="43.6499" y="37.0505" class="text" font-family="'Droid Sans'" fill="#000000" text-anchor="middle" stroke="none" id="label" stroke-width="0" font-size="4.25001">Breakout</text>
<text x="43.6499" y="41.584" class="text" font-family="'Droid Sans'" fill="#000000" text-anchor="middle" stroke="none" id="label" stroke-width="0" font-size="4.25001">ADXL335</text>
</g>
</g></g><g partID='56210'><g transform='translate(130.848,5.6)' ><g id="schematic">
<rect width="71.101" x="14.85" y="14.852" fill="#FFFFFF" height="308.701" stroke="#000000" stroke-linecap="round" stroke-width="0.9"/>
<line fill="none" stroke="#787878" id="connector238pin" stroke-linecap="round" y1="28.8" stroke-width="0.75" x1="86.05" y2="28.8" x2="100.451"/>
<g transform="matrix(1, 0, 0, 1, 68.1997, 29.5)">
<text fill="#8C8C8C" font-family="'DroidSans'" font-size="3.5">D13 PWM</text>
</g>
<g width="0.699" x="100.451" y="28.45" fill="none" height="0.7" id="connector238terminal"/>
<line fill="none" stroke="#787878" id="connector239pin" stroke-linecap="round" y1="36" stroke-width="0.75" x1="86.05" y2="36" x2="100.451"/>
<g transform="matrix(1, 0, 0, 1, 68.1997, 36.6992)">
<text fill="#8C8C8C" font-family="'DroidSans'" font-size="3.5">D12 PWM</text>
</g>
<g width="0.699" x="100.451" y="35.65" fill="none" height="0.7" id="connector239terminal"/>
<line fill="none" stroke="#787878" id="connector240pin" stroke-linecap="round" y1="43.2" stroke-width="0.75" x1="86.05" y2="43.2" x2="100.451"/>
<g transform="matrix(1, 0, 0, 1, 68.1997, 43.9004)">
<text fill="#8C8C8C" font-family="'DroidSans'" font-size="3.5">D11 PWM</text>
</g>
<g width="0.699" x="100.451" y="42.85" fill="none" height="0.7" id="connector240terminal"/>
<line fill="none" stroke="#787878" id="connector241pin" stroke-linecap="round" y1="50.4" stroke-width="0.75" x1="86.05" y2="50.4" x2="100.451"/>
<g transform="matrix(1, 0, 0, 1, 68.1997, 51.0996)">
<text fill="#8C8C8C" font-family="'DroidSans'" font-size="3.5">D10 PWM</text>
</g>
<g width="0.699" x="100.451" y="50.05" fill="none" height="0.7" id="connector241terminal"/>
<line fill="none" stroke="#787878" id="connector243pin" stroke-linecap="round" y1="64.8" stroke-width="0.75" x1="86.05" y2="64.8" x2="100.451"/>
<g transform="matrix(1, 0, 0, 1, 70.1274, 65.501)">
<text fill="#8C8C8C" font-family="'DroidSans'" font-size="3.5">D8 PWM</text>
</g>
<g width="0.699" x="100.451" y="64.45" fill="none" height="0.7" id="connector243terminal"/>
<line fill="none" stroke="#787878" id="connector242pin" stroke-linecap="round" y1="57.6" stroke-width="0.75" x1="86.05" y2="57.6" x2="100.451"/>
<g transform="matrix(1, 0, 0, 1, 70.1274, 58.3008)">
<text fill="#8C8C8C" font-family="'DroidSans'" font-size="3.5">D9 PWM</text>
</g>
<g width="0.699" x="100.451" y="57.25" fill="none" height="0.7" id="connector242terminal"/>
<line fill="none" stroke="#787878" id="connector269pin" stroke-linecap="round" y1="72" stroke-width="0.75" x1="86.05" y2="72" x2="100.451"/>
<g transform="matrix(1, 0, 0, 1, 70.1274, 72.6992)">
<text fill="#8C8C8C" font-family="'DroidSans'" font-size="3.5">D7 PWM</text>
</g>
<g width="0.699" x="100.451" y="71.65" fill="none" height="0.7" id="connector269terminal"/>
<line fill="none" stroke="#787878" id="connector268pin" stroke-linecap="round" y1="79.2" stroke-width="0.75" x1="86.05" y2="79.2" x2="100.451"/>
<g transform="matrix(1, 0, 0, 1, 70.1274, 79.9004)">
<text fill="#8C8C8C" font-family="'DroidSans'" font-size="3.5">D6 PWM</text>
</g>
<g width="0.699" x="100.451" y="78.85" fill="none" height="0.7" id="connector268terminal"/>
<line fill="none" stroke="#787878" id="connector267pin" stroke-linecap="round" y1="86.4" stroke-width="0.75" x1="86.05" y2="86.4" x2="100.451"/>
<g transform="matrix(1, 0, 0, 1, 70.1274, 87.0996)">
<text fill="#8C8C8C" font-family="'DroidSans'" font-size="3.5">D5 PWM</text>
</g>
<g width="0.699" x="100.451" y="86.05" fill="none" height="0.7" id="connector267terminal"/>
<line fill="none" stroke="#787878" id="connector266pin" stroke-linecap="round" y1="93.6" stroke-width="0.75" x1="86.05" y2="93.6" x2="100.451"/>
<g transform="matrix(1, 0, 0, 1, 70.1274, 94.3008)">
<text fill="#8C8C8C" font-family="'DroidSans'" font-size="3.5">D4 PWM</text>
</g>
<g width="0.699" x="100.451" y="93.25" fill="none" height="0.7" id="connector266terminal"/>
<line fill="none" stroke="#787878" id="connector265pin" stroke-linecap="round" y1="108" stroke-width="0.75" x1="86.05" y2="108" x2="100.451"/>
<g transform="matrix(1, 0, 0, 1, 70.1274, 108.699)">
<text fill="#8C8C8C" font-family="'DroidSans'" font-size="3.5">D3 PWM</text>
</g>
<g width="0.699" x="100.451" y="107.65" fill="none" height="0.7" id="connector265terminal"/>
<line fill="none" stroke="#787878" id="connector264pin" stroke-linecap="round" y1="100.8" stroke-width="0.75" x1="86.05" y2="100.8" x2="100.451"/>
<g transform="matrix(1, 0, 0, 1, 70.1274, 101.5)">
<text fill="#8C8C8C" font-family="'DroidSans'" font-size="3.5">D2 PWM</text>
</g>
<g width="0.699" x="100.451" y="100.45" fill="none" height="0.7" id="connector264terminal"/>
<line fill="none" stroke="#787878" id="connector263pin" stroke-linecap="round" y1="115.2" stroke-width="0.75" x1="86.05" y2="115.2" x2="100.451"/>
<g transform="matrix(1, 0, 0, 1, 72.6235, 115.898)">
<text fill="#8C8C8C" font-family="'DroidSans'" font-size="3.5">D1 TX0</text>
</g>
<g width="0.699" x="100.451" y="114.85" fill="none" height="0.7" id="connector263terminal"/>
<line fill="none" stroke="#787878" id="connector262pin" stroke-linecap="round" y1="122.4" stroke-width="0.75" x1="86.05" y2="122.4" x2="100.451"/>
<g transform="matrix(1, 0, 0, 1, 72.3755, 123.1)">
<text fill="#8C8C8C" font-family="'DroidSans'" font-size="3.5">D0 RX0</text>
</g>
<g width="0.699" x="100.451" y="122.05" fill="none" height="0.7" id="connector262terminal"/>
<line fill="none" stroke="#787878" id="connector53pin" stroke-linecap="round" y1="136.8" stroke-width="0.75" x1="86.05" y2="136.8" x2="100.451"/>
<g transform="matrix(1, 0, 0, 1, 70.2993, 137.5)">
<text fill="#8C8C8C" font-family="'DroidSans'" font-size="3.5">D14/TX3</text>
</g>
<g width="0.699" x="100.451" y="136.45" fill="none" height="0.7" id="connector53terminal"/>
<line fill="none" stroke="#787878" id="connector52pin" stroke-linecap="round" y1="144" stroke-width="0.75" x1="86.05" y2="144" x2="100.451"/>
<g transform="matrix(1, 0, 0, 1, 70.0513, 144.699)">
<text fill="#8C8C8C" font-family="'DroidSans'" font-size="3.5">D15/RX3</text>
</g>
<g width="0.699" x="100.451" y="143.65" fill="none" height="0.7" id="connector52terminal"/>
<line fill="none" stroke="#787878" id="connector51pin" stroke-linecap="round" y1="151.2" stroke-width="0.75" x1="86.05" y2="151.2" x2="100.451"/>
<g transform="matrix(1, 0, 0, 1, 61.2349, 151.898)">
<text fill="#8C8C8C" font-family="'DroidSans'" font-size="3.5">D16 PWM/TX2</text>
</g>
<g width="0.699" x="100.451" y="150.85" fill="none" height="0.7" id="connector51terminal"/>
<line fill="none" stroke="#787878" id="connector50pin" stroke-linecap="round" y1="158.4" stroke-width="0.75" x1="86.05" y2="158.4" x2="100.451"/>
<g transform="matrix(1, 0, 0, 1, 60.9868, 159.1)">
<text fill="#8C8C8C" font-family="'DroidSans'" font-size="3.5">D17 PWM/RX2</text>
</g>
<g width="0.699" x="100.451" y="158.05" fill="none" height="0.7" id="connector50terminal"/>
<line fill="none" stroke="#787878" id="connector49pin" stroke-linecap="round" y1="165.6" stroke-width="0.75" x1="86.05" y2="165.6" x2="100.451"/>
<g transform="matrix(1, 0, 0, 1, 70.2993, 166.299)">
<text fill="#8C8C8C" font-family="'DroidSans'" font-size="3.5">D18/TX1</text>
</g>
<g width="0.699" x="100.451" y="165.25" fill="none" height="0.7" id="connector49terminal"/>
<line fill="none" stroke="#787878" id="connector48pin" stroke-linecap="round" y1="172.8" stroke-width="0.75" x1="86.05" y2="172.8" x2="100.451"/>
<g transform="matrix(1, 0, 0, 1, 70.0513, 173.5)">
<text fill="#8C8C8C" font-family="'DroidSans'" font-size="3.5">D19/RX1</text>
</g>
<g width="0.699" x="100.451" y="172.45" fill="none" height="0.699" id="connector48terminal"/>
<line fill="none" id="connector47pin" y1="180" x1="86.05" y2="180" x2="100.451"/>
<g width="0.699" x="100.451" y="179.649" fill="none" height="0.701" id="connector47terminal"/>
<line fill="none" stroke="#787878" id="connector235pin" stroke-linecap="round" y1="180" stroke-width="0.75" x1="86.05" y2="180" x2="100.451"/>
<g transform="matrix(1, 0, 0, 1, 77.2095, 180.699)">
<text fill="#8C8C8C" font-family="'DroidSans'" font-size="3.5">S</text>
</g>
<g transform="matrix(1, 0, 0, 1, 79.0259, 180.699)">
<text fill="#8C8C8C" font-family="'DroidSans'" font-size="3.5">D</text>
</g>
<g transform="matrix(1, 0, 0, 1, 81.3872, 180.699)">
<text fill="#8C8C8C" font-family="'DroidSans'" font-size="3.5">A</text>
</g>
<g width="0.699" x="100.451" y="179.649" fill="none" height="0.701" id="connector235terminal"/>
<line fill="none" id="connector46pin" y1="187.2" x1="86.05" y2="187.2" x2="100.451"/>
<g width="0.699" x="100.451" y="186.851" fill="none" height="0.699" id="connector46terminal"/>
<line fill="none" stroke="#787878" id="connector234pin" stroke-linecap="round" y1="187.2" stroke-width="0.75" x1="86.05" y2="187.2" x2="100.451"/>
<g transform="matrix(1, 0, 0, 1, 77.8677, 187.898)">
<text fill="#8C8C8C" font-family="'DroidSans'" font-size="3.5">SCL</text>
</g>
<g width="0.699" x="100.451" y="186.851" fill="none" height="0.699" id="connector234terminal"/>
<line fill="none" stroke="#787878" id="connector345pin" stroke-linecap="round" y1="201.601" stroke-width="0.75" x1="86.05" y2="201.601" x2="100.451"/>
<g transform="matrix(1, 0, 0, 1, 77.2642, 202.299)">
<text fill="#8C8C8C" font-family="'DroidSans'" font-size="3.5">D22</text>
</g>
<g width="0.699" x="100.451" y="201.25" fill="none" height="0.7" id="connector345terminal"/>
<line fill="none" stroke="#787878" id="connector346pin" stroke-linecap="round" y1="208.8" stroke-width="0.75" x1="86.05" y2="208.8" x2="100.451"/>
<g transform="matrix(1, 0, 0, 1, 77.2642, 209.5)">
<text fill="#8C8C8C" font-family="'DroidSans'" font-size="3.5">D23</text>
</g>
<g width="0.699" x="100.451" y="208.45" fill="none" height="0.699" id="connector346terminal"/>
<line fill="none" stroke="#787878" id="connector347pin" stroke-linecap="round" y1="216" stroke-width="0.75" x1="86.05" y2="216" x2="100.451"/>
<g transform="matrix(1, 0, 0, 1, 77.2642, 216.699)">
<text fill="#8C8C8C" font-family="'DroidSans'" font-size="3.5">D24</text>
</g>
<g width="0.699" x="100.451" y="215.649" fill="none" height="0.701" id="connector347terminal"/>
<line fill="none" stroke="#787878" id="connector348pin" stroke-linecap="round" y1="223.2" stroke-width="0.75" x1="86.05" y2="223.2" x2="100.451"/>
<g transform="matrix(1, 0, 0, 1, 77.2642, 223.898)">
<text fill="#8C8C8C" font-family="'DroidSans'" font-size="3.5">D25</text>
</g>
<g width="0.699" x="100.451" y="222.851" fill="none" height="0.699" id="connector348terminal"/>
<line fill="none" stroke="#787878" id="connector349pin" stroke-linecap="round" y1="230.399" stroke-width="0.75" x1="86.05" y2="230.399" x2="100.451"/>
<g transform="matrix(1, 0, 0, 1, 77.2642, 231.1)">
<text fill="#8C8C8C" font-family="'DroidSans'" font-size="3.5">D26</text>
</g>
<g width="0.699" x="100.451" y="230.05" fill="none" height="0.7" id="connector349terminal"/>
<line fill="none" stroke="#787878" id="connector350pin" stroke-linecap="round" y1="237.601" stroke-width="0.75" x1="86.05" y2="237.601" x2="100.451"/>
<g transform="matrix(1, 0, 0, 1, 78.3999, 238.299)">
<text fill="#8C8C8C" font-family="'DroidSans'" font-size="3.5">D27</text>
</g>
<g width="0.699" x="100.451" y="237.25" fill="none" height="0.7" id="connector350terminal"/>
<line fill="none" stroke="#787878" id="connector351pin" stroke-linecap="round" y1="244.801" stroke-width="0.75" x1="86.05" y2="244.801" x2="100.451"/>
<g transform="matrix(1, 0, 0, 1, 77.2642, 245.5)">
<text fill="#8C8C8C" font-family="'DroidSans'" font-size="3.5">D28</text>
</g>
<g width="0.699" x="100.451" y="244.45" fill="none" height="0.699" id="connector351terminal"/>
<line fill="none" stroke="#787878" id="connector352pin" stroke-linecap="round" y1="252" stroke-width="0.75" x1="86.05" y2="252" x2="100.451"/>
<g transform="matrix(1, 0, 0, 1, 77.2642, 252.701)">
<text fill="#8C8C8C" font-family="'DroidSans'" font-size="3.5">D29</text>
</g>
<g width="0.699" x="100.451" y="251.649" fill="none" height="0.699" id="connector352terminal"/>
<line fill="none" stroke="#787878" id="connector353pin" stroke-linecap="round" y1="259.2" stroke-width="0.75" x1="86.05" y2="259.2" x2="100.451"/>
<g transform="matrix(1, 0, 0, 1, 77.2642, 259.9)">
<text fill="#8C8C8C" font-family="'DroidSans'" font-size="3.5">D30</text>
</g>
<g width="0.699" x="100.451" y="258.851" fill="none" height="0.7" id="connector353terminal"/>
<line fill="none" stroke="#787878" id="connector354pin" stroke-linecap="round" y1="266.399" stroke-width="0.75" x1="86.05" y2="266.399" x2="100.451"/>
<g transform="matrix(1, 0, 0, 1, 77.2642, 267.1)">
<text fill="#8C8C8C" font-family="'DroidSans'" font-size="3.5">D31</text>
</g>
<g width="0.699" x="100.451" y="266.051" fill="none" height="0.699" id="connector354terminal"/>
<line fill="none" stroke="#787878" id="connector355pin" stroke-linecap="round" y1="273.601" stroke-width="0.75" x1="86.05" y2="273.601" x2="100.451"/>
<g transform="matrix(1, 0, 0, 1, 77.2642, 274.301)">
<text fill="#8C8C8C" font-family="'DroidSans'" font-size="3.5">D32</text>
</g>
<g width="0.699" x="100.451" y="273.25" fill="none" height="0.7" id="connector355terminal"/>
<line fill="none" stroke="#787878" id="connector356pin" stroke-linecap="round" y1="280.801" stroke-width="0.75" x1="86.05" y2="280.801" x2="100.451"/>
<g transform="matrix(1, 0, 0, 1, 77.2642, 281.5)">
<text fill="#8C8C8C" font-family="'DroidSans'" font-size="3.5">D33</text>
</g>
<g width="0.699" x="100.451" y="280.45" fill="none" height="0.699" id="connector356terminal"/>
<line fill="none" stroke="#787878" id="connector357pin" stroke-linecap="round" y1="288" stroke-width="0.75" x1="86.05" y2="288" x2="100.451"/>
<g transform="matrix(1, 0, 0, 1, 77.2642, 288.701)">
<text fill="#8C8C8C" font-family="'DroidSans'" font-size="3.5">D34</text>
</g>
<g width="0.699" x="100.451" y="287.649" fill="none" height="0.699" id="connector357terminal"/>
<line fill="none" stroke="#787878" id="connector358pin" stroke-linecap="round" y1="295.2" stroke-width="0.75" x1="86.05" y2="295.2" x2="100.451"/>
<g transform="matrix(1, 0, 0, 1, 77.2642, 295.9)">
<text fill="#8C8C8C" font-family="'DroidSans'" font-size="3.5">D35</text>
</g>
<g width="0.699" x="100.451" y="294.851" fill="none" height="0.7" id="connector358terminal"/>
<line fill="none" stroke="#787878" id="connector359pin" stroke-linecap="round" y1="302.4" stroke-width="0.75" x1="86.05" y2="302.4" x2="100.451"/>
<g transform="matrix(1, 0, 0, 1, 77.2642, 303.1)">
<text fill="#8C8C8C" font-family="'DroidSans'" font-size="3.5">D36</text>
</g>
<g width="0.699" x="100.451" y="302.051" fill="none" height="0.701" id="connector359terminal"/>
<line fill="none" stroke="#787878" id="connector360pin" stroke-linecap="round" y1="309.601" stroke-width="0.75" x1="86.05" y2="309.601" x2="100.451"/>
<g transform="matrix(1, 0, 0, 1, 77.2642, 310.301)">
<text fill="#8C8C8C" font-family="'DroidSans'" font-size="3.5">D37</text>
</g>
<g width="0.699" x="100.451" y="309.252" fill="none" height="0.699" id="connector360terminal"/>
<line fill="none" stroke="#787878" id="connector256pin" stroke-linecap="round" y1="28.8" stroke-width="0.75" x1="0.35" y2="28.8" x2="14.75"/>
<g transform="matrix(1, 0, 0, 1, 16.1504, 29.5)">
<text fill="#8C8C8C" font-family="'DroidSans'" font-size="3.5">RESET</text>
</g>
<g width="0.7" x="-0.35" y="28.45" fill="none" height="0.7" id="connector256terminal"/>
<line fill="none" stroke="#787878" id="connector236pin" stroke-linecap="round" y1="36" stroke-width="0.75" x1="0.35" y2="36" x2="14.75"/>
<g transform="matrix(1, 0, 0, 1, 16.1504, 36.6992)">
<text fill="#8C8C8C" font-family="'DroidSans'" font-size="3.5">AREF</text>
</g>
<g width="0.7" x="-0.35" y="35.65" fill="none" height="0.7" id="connector236terminal"/>
<line fill="none" stroke="#787878" id="connector254pin" stroke-linecap="round" y1="43.2" stroke-width="0.75" x1="0.35" y2="43.2" x2="14.75"/>
<g transform="matrix(1, 0, 0, 1, 16.1504, 43.9004)">
<text fill="#8C8C8C" font-family="'DroidSans'" font-size="3.5">I</text>
</g>
<g transform="matrix(1, 0, 0, 1, 17.3022, 43.9004)">
<text fill="#8C8C8C" font-family="'DroidSans'" font-size="3.5">O</text>
</g>
<g transform="matrix(1, 0, 0, 1, 19.8999, 43.9004)">
<text fill="#8C8C8C" font-family="'DroidSans'" font-size="3.5">R</text>
</g>
<g transform="matrix(1, 0, 0, 1, 21.9644, 43.9004)">
<text fill="#8C8C8C" font-family="'DroidSans'" font-size="3.5">E</text>
</g>
<g transform="matrix(1, 0, 0, 1, 23.8115, 43.9004)">
<text fill="#8C8C8C" font-family="'DroidSans'" font-size="3.5">F</text>
</g>
<g width="0.7" x="-0.35" y="42.85" fill="none" height="0.7" id="connector254terminal"/>
<line fill="none" id="connector255pin" y1="0.35" x1="43.2" y2="14.75" x2="43.2"/>
<g width="0.7" x="42.85" y="-0.35" fill="none" height="0.7" id="connector255terminal"/>
<line fill="none" id="connector258pin" y1="0.35" x1="43.2" y2="14.75" x2="43.2"/>
<g width="0.7" x="42.85" y="-0.35" fill="none" height="0.7" id="connector258terminal"/>
<line fill="none" id="connector343pin" y1="0.35" x1="43.2" y2="14.75" x2="43.2"/>
<g width="0.7" x="42.85" y="-0.35" fill="none" height="0.7" id="connector343terminal"/>
<line fill="none" stroke="#787878" id="connector344pin" stroke-linecap="round" y1="0.35" stroke-width="0.75" x1="43.2" y2="14.75" x2="43.2"/>
<g transform="matrix(-4.37114e-08, -1, 1, -4.37114e-08, 44.6572, 20.0669)">
<text fill="#8C8C8C" font-family="'DroidSans'" font-size="3.5">5V</text>
</g>
<g width="0.7" x="42.85" y="-0.35" fill="none" height="0.7" id="connector344terminal"/>
<line fill="none" stroke="#787878" id="connector8pin" stroke-linecap="round" y1="64.8" stroke-width="0.75" x1="0.35" y2="64.8" x2="14.75"/>
<g transform="matrix(1, 0, 0, 1, 16.1504, 65.5)">
<text fill="#8C8C8C" font-family="'DroidSans'" font-size="3.5">A0</text>
</g>
<g width="0.7" x="-0.35" y="64.45" fill="none" height="0.7" id="connector8terminal"/>
<line fill="none" stroke="#787878" id="connector9pin" stroke-linecap="round" y1="72" stroke-width="0.75" x1="0.35" y2="72" x2="14.75"/>
<g transform="matrix(1, 0, 0, 1, 16.1504, 72.6992)">
<text fill="#8C8C8C" font-family="'DroidSans'" font-size="3.5">A1</text>
</g>
<g width="0.7" x="-0.35" y="71.65" fill="none" height="0.7" id="connector9terminal"/>
<line fill="none" stroke="#787878" id="connector10pin" stroke-linecap="round" y1="79.2" stroke-width="0.75" x1="0.35" y2="79.2" x2="14.75"/>
<g transform="matrix(1, 0, 0, 1, 16.1504, 79.9004)">
<text fill="#8C8C8C" font-family="'DroidSans'" font-size="3.5">A2</text>
</g>
<g width="0.7" x="-0.35" y="78.85" fill="none" height="0.7" id="connector10terminal"/>
<line fill="none" stroke="#787878" id="connector11pin" stroke-linecap="round" y1="86.4" stroke-width="0.75" x1="0.35" y2="86.4" x2="14.75"/>
<g transform="matrix(1, 0, 0, 1, 16.1504, 87.0996)">
<text fill="#8C8C8C" font-family="'DroidSans'" font-size="3.5">A3</text>
</g>
<g width="0.7" x="-0.35" y="86.05" fill="none" height="0.7" id="connector11terminal"/>
<line fill="none" stroke="#787878" id="connector12pin" stroke-linecap="round" y1="93.6" stroke-width="0.75" x1="0.35" y2="93.6" x2="14.75"/>
<g transform="matrix(1, 0, 0, 1, 16.1504, 94.3008)">
<text fill="#8C8C8C" font-family="'DroidSans'" font-size="3.5">A4</text>
</g>
<g width="0.7" x="-0.35" y="93.25" fill="none" height="0.7" id="connector12terminal"/>
<line fill="none" stroke="#787878" id="connector13pin" stroke-linecap="round" y1="100.8" stroke-width="0.75" x1="0.35" y2="100.8" x2="14.75"/>
<g transform="matrix(1, 0, 0, 1, 16.1504, 101.5)">
<text fill="#8C8C8C" font-family="'DroidSans'" font-size="3.5">A5</text>
</g>
<g width="0.7" x="-0.35" y="100.45" fill="none" height="0.7" id="connector13terminal"/>
<line fill="none" stroke="#787878" id="connector14pin" stroke-linecap="round" y1="108" stroke-width="0.75" x1="0.35" y2="108" x2="14.75"/>
<g transform="matrix(1, 0, 0, 1, 16.1504, 108.699)">
<text fill="#8C8C8C" font-family="'DroidSans'" font-size="3.5">A6</text>
</g>
<g width="0.7" x="-0.35" y="107.65" fill="none" height="0.7" id="connector14terminal"/>
<line fill="none" stroke="#787878" id="connector15pin" stroke-linecap="round" y1="115.2" stroke-width="0.75" x1="0.35" y2="115.2" x2="14.75"/>
<g transform="matrix(1, 0, 0, 1, 16.1504, 115.9)">
<text fill="#8C8C8C" font-family="'DroidSans'" font-size="3.5">A7</text>
</g>
<g width="0.7" x="-0.35" y="114.85" fill="none" height="0.7" id="connector15terminal"/>
<line fill="none" stroke="#787878" id="connector0pin" stroke-linecap="round" y1="122.4" stroke-width="0.75" x1="0.35" y2="122.4" x2="14.75"/>
<g transform="matrix(1, 0, 0, 1, 16.1504, 123.1)">
<text fill="#8C8C8C" font-family="'DroidSans'" font-size="3.5">A8</text>
</g>
<g width="0.7" x="-0.35" y="122.05" fill="none" height="0.7" id="connector0terminal"/>
<line fill="none" stroke="#787878" id="connector1pin" stroke-linecap="round" y1="129.6" stroke-width="0.75" x1="0.35" y2="129.6" x2="14.75"/>
<g transform="matrix(1, 0, 0, 1, 16.1504, 130.301)">
<text fill="#8C8C8C" font-family="'DroidSans'" font-size="3.5">A9</text>
</g>
<g width="0.7" x="-0.35" y="129.25" fill="none" height="0.7" id="connector1terminal"/>
<line fill="none" stroke="#787878" id="connector2pin" stroke-linecap="round" y1="136.8" stroke-width="0.75" x1="0.35" y2="136.8" x2="14.75"/>
<g transform="matrix(1, 0, 0, 1, 16.1504, 137.5)">
<text fill="#8C8C8C" font-family="'DroidSans'" font-size="3.5">A10</text>
</g>
<g width="0.7" x="-0.35" y="136.45" fill="none" height="0.7" id="connector2terminal"/>
<line fill="none" stroke="#787878" id="connector3pin" stroke-linecap="round" y1="144" stroke-width="0.75" x1="0.35" y2="144" x2="14.75"/>
<g transform="matrix(1, 0, 0, 1, 16.1504, 144.699)">
<text fill="#8C8C8C" font-family="'DroidSans'" font-size="3.5">A11</text>
</g>
<g width="0.7" x="-0.35" y="143.65" fill="none" height="0.7" id="connector3terminal"/>
<line fill="none" stroke="#787878" id="connector4pin" stroke-linecap="round" y1="151.2" stroke-width="0.75" x1="0.35" y2="151.2" x2="14.75"/>
<g transform="matrix(1, 0, 0, 1, 16.1504, 151.9)">
<text fill="#8C8C8C" font-family="'DroidSans'" font-size="3.5">A12</text>
</g>
<g width="0.7" x="-0.35" y="150.85" fill="none" height="0.7" id="connector4terminal"/>
<line fill="none" stroke="#787878" id="connector5pin" stroke-linecap="round" y1="158.4" stroke-width="0.75" x1="0.35" y2="158.4" x2="14.75"/>
<g transform="matrix(1, 0, 0, 1, 16.1504, 159.1)">
<text fill="#8C8C8C" font-family="'DroidSans'" font-size="3.5">A13</text>
</g>
<g width="0.7" x="-0.35" y="158.05" fill="none" height="0.7" id="connector5terminal"/>
<line fill="none" stroke="#787878" id="connector6pin" stroke-linecap="round" y1="165.6" stroke-width="0.75" x1="0.35" y2="165.6" x2="14.75"/>
<g transform="matrix(1, 0, 0, 1, 16.1504, 166.301)">
<text fill="#8C8C8C" font-family="'DroidSans'" font-size="3.5">A14</text>
</g>
<g width="0.7" x="-0.35" y="165.25" fill="none" height="0.699" id="connector6terminal"/>
<line fill="none" stroke="#787878" id="connector7pin" stroke-linecap="round" y1="172.8" stroke-width="0.75" x1="0.35" y2="172.8" x2="14.75"/>
<g transform="matrix(1, 0, 0, 1, 16.1504, 173.5)">
<text fill="#8C8C8C" font-family="'DroidSans'" font-size="3.5">A15</text>
</g>
<g width="0.7" x="-0.35" y="172.449" fill="none" height="0.7" id="connector7terminal"/>
<line fill="none" stroke="#787878" id="connector361pin" stroke-linecap="round" y1="194.399" stroke-width="0.75" x1="0.35" y2="194.399" x2="14.75"/>
<g transform="matrix(1, 0, 0, 1, 16.1504, 195.1)">
<text fill="#8C8C8C" font-family="'DroidSans'" font-size="3.5">D38</text>
</g>
<g width="0.7" x="-0.35" y="194.05" fill="none" height="0.7" id="connector361terminal"/>
<line fill="none" stroke="#787878" id="connector362pin" stroke-linecap="round" y1="201.601" stroke-width="0.75" x1="0.35" y2="201.601" x2="14.75"/>
<g transform="matrix(1, 0, 0, 1, 16.1504, 202.301)">
<text fill="#8C8C8C" font-family="'DroidSans'" font-size="3.5">D39</text>
</g>
<g width="0.7" x="-0.35" y="201.25" fill="none" height="0.699" id="connector362terminal"/>
<line fill="none" stroke="#787878" id="connector363pin" stroke-linecap="round" y1="208.8" stroke-width="0.75" x1="0.35" y2="208.8" x2="14.75"/>
<g transform="matrix(1, 0, 0, 1, 16.1504, 209.5)">
<text fill="#8C8C8C" font-family="'DroidSans'" font-size="3.5">D40</text>
</g>
<g width="0.7" x="-0.35" y="208.449" fill="none" height="0.7" id="connector363terminal"/>
<line fill="none" stroke="#787878" id="connector364pin" stroke-linecap="round" y1="216" stroke-width="0.75" x1="0.35" y2="216" x2="14.75"/>
<g transform="matrix(1, 0, 0, 1, 16.1504, 216.699)">
<text fill="#8C8C8C" font-family="'DroidSans'" font-size="3.5">D41</text>
</g>
<g width="0.7" x="-0.35" y="215.649" fill="none" height="0.699" id="connector364terminal"/>
<line fill="none" stroke="#787878" id="connector365pin" stroke-linecap="round" y1="223.2" stroke-width="0.75" x1="0.35" y2="223.2" x2="14.75"/>
<g transform="matrix(1, 0, 0, 1, 16.1504, 223.9)">
<text fill="#8C8C8C" font-family="'DroidSans'" font-size="3.5">D42</text>
</g>
<g width="0.7" x="-0.35" y="222.851" fill="none" height="0.699" id="connector365terminal"/>
<line fill="none" stroke="#787878" id="connector366pin" stroke-linecap="round" y1="230.399" stroke-width="0.75" x1="0.35" y2="230.399" x2="14.75"/>
<g transform="matrix(1, 0, 0, 1, 16.1504, 231.1)">
<text fill="#8C8C8C" font-family="'DroidSans'" font-size="3.5">D43</text>
</g>
<g width="0.7" x="-0.35" y="230.05" fill="none" height="0.7" id="connector366terminal"/>
<line fill="none" stroke="#787878" id="connector367pin" stroke-linecap="round" y1="237.6" stroke-width="0.75" x1="0.35" y2="237.6" x2="14.75"/>
<g transform="matrix(1, 0, 0, 1, 16.1504, 238.3)">
<text fill="#8C8C8C" font-family="'DroidSans'" font-size="3.5">D44</text>
</g>
<g width="0.7" x="-0.35" y="237.25" fill="none" height="0.7" id="connector367terminal"/>
<line fill="none" stroke="#787878" id="connector368pin" stroke-linecap="round" y1="244.801" stroke-width="0.75" x1="0.35" y2="244.801" x2="14.75"/>
<g transform="matrix(1, 0, 0, 1, 16.1504, 245.501)">
<text fill="#8C8C8C" font-family="'DroidSans'" font-size="3.5">D45</text>
</g>
<g width="0.7" x="-0.35" y="244.45" fill="none" height="0.699" id="connector368terminal"/>
<line fill="none" stroke="#787878" id="connector369pin" stroke-linecap="round" y1="252" stroke-width="0.75" x1="0.35" y2="252" x2="14.75"/>
<g transform="matrix(1, 0, 0, 1, 16.1504, 252.7)">
<text fill="#8C8C8C" font-family="'DroidSans'" font-size="3.5">D46</text>
</g>
<g width="0.7" x="-0.35" y="251.649" fill="none" height="0.7" id="connector369terminal"/>
<line fill="none" stroke="#787878" id="connector370pin" stroke-linecap="round" y1="259.2" stroke-width="0.75" x1="0.35" y2="259.2" x2="14.75"/>
<g transform="matrix(1, 0, 0, 1, 16.1504, 259.899)">
<text fill="#8C8C8C" font-family="'DroidSans'" font-size="3.5">D47</text>
</g>
<g width="0.7" x="-0.35" y="258.85" fill="none" height="0.699" id="connector370terminal"/>
<line fill="none" stroke="#787878" id="connector371pin" stroke-linecap="round" y1="266.4" stroke-width="0.75" x1="0.35" y2="266.4" x2="14.75"/>
<g transform="matrix(1, 0, 0, 1, 16.1504, 267.101)">
<text fill="#8C8C8C" font-family="'DroidSans'" font-size="3.5">D48</text>
</g>
<g width="0.7" x="-0.35" y="266.051" fill="none" height="0.699" id="connector371terminal"/>
<line fill="none" stroke="#787878" id="connector372pin" stroke-linecap="round" y1="273.6" stroke-width="0.75" x1="0.35" y2="273.6" x2="14.75"/>
<g transform="matrix(1, 0, 0, 1, 16.1504, 274.3)">
<text fill="#8C8C8C" font-family="'DroidSans'" font-size="3.5">D49</text>
</g>
<g width="0.7" x="-0.35" y="273.25" fill="none" height="0.7" id="connector372terminal"/>
<line fill="none" stroke="#787878" id="connector373pin" stroke-linecap="round" y1="280.801" stroke-width="0.75" x1="0.35" y2="280.801" x2="14.75"/>
<g transform="matrix(1, 0, 0, 1, 16.1504, 281.501)">
<text fill="#8C8C8C" font-family="'DroidSans'" font-size="3.5">D50</text>
</g>
<g width="0.7" x="-0.35" y="280.45" fill="none" height="0.699" id="connector373terminal"/>
<line fill="none" stroke="#787878" id="connector374pin" stroke-linecap="round" y1="288" stroke-width="0.75" x1="0.35" y2="288" x2="14.75"/>
<g transform="matrix(1, 0, 0, 1, 16.1504, 288.7)">
<text fill="#8C8C8C" font-family="'DroidSans'" font-size="3.5">D51</text>
</g>
<g width="0.7" x="-0.35" y="287.649" fill="none" height="0.7" id="connector374terminal"/>
<line fill="none" stroke="#787878" id="connector375pin" stroke-linecap="round" y1="295.2" stroke-width="0.75" x1="0.35" y2="295.2" x2="14.75"/>
<g transform="matrix(1, 0, 0, 1, 16.1504, 295.899)">
<text fill="#8C8C8C" font-family="'DroidSans'" font-size="3.5">D52</text>
</g>
<g width="0.7" x="-0.35" y="294.85" fill="none" height="0.701" id="connector375terminal"/>
<line fill="none" stroke="#787878" id="connector376pin" stroke-linecap="round" y1="302.4" stroke-width="0.75" x1="0.35" y2="302.4" x2="14.75"/>
<g transform="matrix(1, 0, 0, 1, 16.1504, 303.101)">
<text fill="#8C8C8C" font-family="'DroidSans'" font-size="3.5">D53</text>
</g>
<g width="0.7" x="-0.35" y="302.053" fill="none" height="0.698" id="connector376terminal"/>
<line fill="none" id="connector377pin" y1="323.651" x1="43.2" y2="338.052" x2="43.2"/>
<g width="0.7" x="42.85" y="338.052" fill="none" height="0.699" id="connector377terminal"/>
<line fill="none" id="connector260pin" y1="323.651" x1="43.2" y2="338.052" x2="43.2"/>
<g width="0.7" x="42.85" y="338.052" fill="none" height="0.699" id="connector260terminal"/>
<line fill="none" id="connector237pin" y1="323.651" x1="43.2" y2="338.052" x2="43.2"/>
<g width="0.7" x="42.85" y="338.052" fill="none" height="0.699" id="connector237terminal"/>
<line fill="none" id="connector259pin" y1="323.651" x1="43.2" y2="338.052" x2="43.2"/>
<g width="0.7" x="42.85" y="338.052" fill="none" height="0.699" id="connector259terminal"/>
<line fill="none" stroke="#787878" id="connector378pin" stroke-linecap="round" y1="323.651" stroke-width="0.75" x1="43.2" y2="338.052" x2="43.2"/>
<g transform="matrix(1, 0, 0, 1, 15.4869, 108.603)">
<g>
<g transform="rotate(270)">
<g>
<g transform="matrix(1, 0, 0, 1, -213.649, 28.4135)">
<text fill="#8C8C8C" font-family="'DroidSans'" font-size="3.5">GND</text>
</g>
</g>
</g>
</g>
</g>
<g width="0.7" x="42.85" y="338.052" fill="none" height="0.699" id="connector378terminal"/>
<line fill="none" stroke="#787878" id="connector257pin" stroke-linecap="round" y1="0.35" stroke-width="0.75" x1="36" y2="14.75" x2="36"/>
<g transform="matrix(1, 0, 0, 1, 12.9469, 5.69736)">
<g>
<g transform="rotate(270)">
<g>
<g transform="matrix(1, 0, 0, 1, -16.2948, 23.7523)">
<text fill="#8C8C8C" font-family="'DroidSans'" font-size="3.5">3V3</text>
</g>
</g>
</g>
</g>
</g>
<g width="0.7" x="35.65" y="-0.35" fill="none" height="0.7" id="connector257terminal"/>
<line fill="none" stroke="#787878" id="connector261pin" stroke-linecap="round" y1="0.35" stroke-width="0.75" x1="57.6" y2="14.75" x2="57.6"/>
<g transform="matrix(1, 0, 0, 1, 20.5669, 5.69736)">
<g>
<g transform="rotate(270)">
<g>
<g transform="matrix(1, 0, 0, 1, -16.1776, 37.7334)">
<text fill="#8C8C8C" font-family="'DroidSans'" font-size="3.5">VIN</text>
</g>
</g>
</g>
</g>
</g>
<g width="0.701" x="57.25" y="-0.35" fill="none" height="0.7" id="connector261terminal"/>
<g transform="matrix(1, 0, 0, 1, 43.1855, 153.383)">
<text font-family="'DroidSans'" id="label" font-size="4.25">Arduino</text>
</g>
<g transform="matrix(1, 0, 0, 1, 45.6348, 157.916)">
<text font-family="'DroidSans'" id="label_1_" font-size="4.25">Mega</text>
</g>
<g transform="matrix(1, 0, 0, 1, 46.168, 162.449)">
<text font-family="'DroidSans'" id="label_2_" font-size="4.25">2560</text>
</g>
<g transform="matrix(1, 0, 0, 1, 44.9922, 166.984)">
<text font-family="'DroidSans'" id="label_3_" font-size="4.25">(Rev3)</text>
</g>
</g>
</g></g><g partID='1335310'><line stroke-linecap='round' stroke='#ff7300' x1='130.848' y1='70.4' x2='87.6482' y2='70.4016' stroke-width='0.4' /></g><g partID='1335360'><line stroke-linecap='round' stroke='#25cc35' x1='130.848' y1='77.6' x2='87.6482' y2='77.6016' stroke-width='0.4' /></g><g partID='1335410'><line stroke-linecap='round' stroke='#00a527' x1='130.848' y1='84.8' x2='87.6482' y2='84.8016' stroke-width='0.4' /></g><g partID='1333590'><line stroke-linecap='round' stroke='#404040' x1='51.5299' y1='5.5472' x2='44.642' y2='12.8656' stroke-width='0.699998' /></g><g partID='1333540'><line stroke-linecap='round' stroke='#404040' x1='44.642' y1='12.8656' x2='44.4482' y2='41.6017' stroke-width='0.699998' /></g><g partID='1333480'><line stroke-linecap='round' stroke='#404040' x1='80.373' y1='5.5472' x2='51.5299' y2='5.5472' stroke-width='0.699998' /></g><g partID='1333490'><line stroke-linecap='round' stroke='#404040' x1='166.848' y1='5.6' x2='80.373' y2='5.5472' stroke-width='0.699998' /></g><g partID='1333760'><line stroke-linecap='round' stroke='#404040' x1='44.642' y1='336.598' x2='44.4482' y2='113.602' stroke-width='0.699998' /></g><g partID='1333820'><line stroke-linecap='round' stroke='#404040' x1='51.5299' y1='343.916' x2='44.642' y2='336.598' stroke-width='0.699998' /></g><g partID='1333770'><line stroke-linecap='round' stroke='#404040' x1='174.048' y1='344.002' x2='51.5299' y2='343.916' stroke-width='0.699998' /></g><g partID='1333890'><line stroke-linecap='round' stroke='#404040' x1='1.16205' y1='351.665' x2='1.24829' y2='70.4016' stroke-width='0.699998' /></g><g partID='1334050'><line stroke-linecap='round' stroke='#404040' x1='238.795' y1='200.131' x2='238.795' y2='358.553' stroke-width='0.699998' /></g><g partID='1334000'><line stroke-linecap='round' stroke='#404040' x1='238.795' y1='358.553' x2='8.48029' y2='358.553' stroke-width='0.699998' /></g><g partID='1333950'><line stroke-linecap='round' stroke='#404040' x1='8.48045' y1='358.553' x2='1.16205' y2='351.665' stroke-width='0.699998' /></g><g partID='1333900'><line stroke-linecap='round' stroke='#404040' x1='231.649' y1='192.801' x2='238.795' y2='200.131' stroke-width='0.699998' /></g><g partID='56210' id='partLabel'><g transform='translate(191.612,0)' ><g font-size='5' font-style='normal' font-weight='normal' fill='#000000' font-family="'DroidSans'" id='schematicLabel' fill-opacity='1' stroke='none' ><text x='0' y='3.75'>Microcontroller</text></g></g></g><g partID='57990' id='partLabel'><g transform='translate(47.1818,35.1407)' ><g font-size='5' font-style='normal' font-weight='normal' fill='#000000' font-family="'DroidSans'" id='schematicLabel' fill-opacity='1' stroke='none' ><text x='0' y='3.75'>Accelerometer</text></g></g></g></svg>